<?xml version="1.0" encoding="utf-8"?>
<svg viewBox="278.899 219.506 18.2684 20" xmlns="http://www.w3.org/2000/svg">
  <path d="M 286.899 219.506 C 290.966 219.506 294.325 222.542 294.833 226.471 L 297.083 230.01 C 297.231 230.243 297.201 230.591 296.858 230.738 L 294.899 231.577 L 294.899 234.506 C 294.899 235.611 294.004 236.506 292.899 236.506 L 290.9 236.506 L 290.899 239.506 L 281.899 239.506 L 281.899 235.812 C 281.899 234.632 281.462 233.515 280.654 232.507 C 279.556 231.138 278.899 229.399 278.899 227.506 C 278.899 223.088 282.481 219.506 286.899 219.506 Z M 286.899 221.506 C 283.585 221.506 280.899 224.193 280.899 227.506 C 280.899 228.891 281.367 230.199 282.215 231.256 C 283.309 232.62 283.899 234.174 283.899 235.813 L 283.899 237.506 L 288.9 237.506 L 288.901 234.506 L 292.899 234.506 L 292.899 230.258 L 294.449 229.594 L 292.906 227.169 L 292.849 226.727 C 292.465 223.758 289.923 221.506 286.899 221.506 Z"/>
  <path d="M 286.979 226.625 C 287.393 226.625 287.729 226.961 287.729 227.375 L 287.729 230.875 C 287.729 231.289 287.393 231.625 286.979 231.625 C 286.565 231.625 286.229 231.289 286.229 230.875 L 286.229 227.375 C 286.229 226.961 286.565 226.625 286.979 226.625 Z M 286.981 223.625 C 287.533 223.625 287.981 224.073 287.981 224.625 C 287.981 225.177 287.533 225.625 286.981 225.625 C 286.429 225.625 285.981 225.177 285.981 224.625 C 285.981 224.073 286.429 223.625 286.981 223.625 Z" fill-rule="nonzero"/>
</svg>