<svg xmlns:inkscape="http://www.inkscape.org/namespaces/inkscape" xmlns:sodipodi="http://sodipodi.sourceforge.net/DTD/sodipodi-0.dtd" xmlns="http://www.w3.org/2000/svg" xmlns:svg="http://www.w3.org/2000/svg" viewBox="0 0 8.46667 10.5833375" version="1.1" x="0px" y="0px"><g transform="translate(-173.21158,-163.14378)"><path style="" d="M 186.40514 515.77586 A 1.4221572 1.4221572 0 0 0 185.62822 514.72323 L 183.32251 513.58472 L 182.95215 511.04179 A 1.4221572 1.4221572 0 0 0 181.98308 509.8922 A 1.4221572 1.4221572 0 0 0 180.5267 510.25231 L 178.73059 512.09442 L 176.19654 511.65951 A 1.4221572 1.4221572 0 0 0 174.69838 513.72323 L 175.89301 516.00024 L 174.69838 518.27724 A 1.4221572 1.4221572 0 0 0 176.19654 520.34096 L 178.73059 519.90605 L 180.5267 521.74816 A 1.4221572 1.4221572 0 0 0 182.95215 520.95869 L 183.32251 518.41298 L 185.62822 517.27447 A 1.4221572 1.4221572 0 0 0 186.40514 515.77586 z " transform="matrix(0,-0.18557458,0.18655187,0,83.20672,198.79727)" stroke-width="2.84403" stroke-linecap="round" stroke-linejoin="round"/><path style="color:#000000;" d="m 178.30739,166.73529 a 0.26460996,0.26460996 0 0 0 -0.0977,0.0202 l -0.86558,0.35553 a 0.26460996,0.26460996 0 0 0 -0.0289,0.47439 l 0.92552,0.52917 a 0.26460996,0.26460996 0 0 0 0.39481,-0.24805 l -0.061,-0.8847 a 0.26460996,0.26460996 0 0 0 -0.26716,-0.2465 z" fill="#000000" stroke-linecap="round" stroke-linejoin="round"/><path style="color:#000000;" d="m 177.9668,167.54687 a 0.26458299,0.26458299 0 0 0 -0.3711,0.0449 l -0.3789,0.48632 -0.10352,-0.125 a 0.26460945,0.26460945 0 0 0 -0.41211,0.006 l -0.65625,0.83985 -0.23633,-0.16602 a 0.26460945,0.26460945 0 0 0 -0.36132,0.0547 l -1.1211,1.4375 a 0.26458299,0.26458299 0 0 0 0.0449,0.37109 0.26458299,0.26458299 0 0 0 0.3711,-0.0449 l 0.96875,-1.24023 0.23437,0.16601 a 0.26460945,0.26460945 0 0 0 0.36133,-0.0527 l 0.60938,-0.78125 0.10351,0.125 a 0.26460945,0.26460945 0 0 0 0.41211,-0.006 l 0.58008,-0.74414 a 0.26458299,0.26458299 0 0 0 -0.0449,-0.3711 z" fill="#000000" stroke-linecap="round" stroke-linejoin="round"/><path style="color:#000000;" d="m 176.01367,169.75781 a 0.2645835,0.2645835 0 0 0 -0.26562,0.26563 v 0.26367 a 0.2645835,0.2645835 0 0 0 0.26562,0.26562 0.2645835,0.2645835 0 0 0 0.26367,-0.26562 v -0.26367 a 0.2645835,0.2645835 0 0 0 -0.26367,-0.26563 z" fill="#000000" stroke-linecap="round" stroke-linejoin="round"/><path style="color:#000000;" d="m 177.19727,169.22852 a 0.2645835,0.2645835 0 0 0 -0.26563,0.26562 v 0.79297 a 0.2645835,0.2645835 0 0 0 0.26563,0.26562 0.2645835,0.2645835 0 0 0 0.26367,-0.26562 v -0.79297 a 0.2645835,0.2645835 0 0 0 -0.26367,-0.26562 z" fill="#000000" stroke-linecap="round" stroke-linejoin="round"/><path style="color:#000000;" d="m 178.38086,168.69922 a 0.2645835,0.2645835 0 0 0 -0.26563,0.26562 v 1.32227 a 0.2645835,0.2645835 0 0 0 0.26563,0.26562 0.2645835,0.2645835 0 0 0 0.26367,-0.26562 v -1.32227 a 0.2645835,0.2645835 0 0 0 -0.26367,-0.26562 z" fill="#000000" stroke-linecap="round" stroke-linejoin="round"/></g></svg>