<?xml version="1.0" encoding="utf-8"?>
<svg viewBox="226.625 226.625 46.75 46.75" xmlns="http://www.w3.org/2000/svg" xmlns:xlink="http://www.w3.org/1999/xlink" xmlns:bx="https://boxy-svg.com">
  <defs>
    <linearGradient id="color-5-0" gradientUnits="userSpaceOnUse" x1="250" y1="226.625" x2="250" y2="273.375" xlink:href="#color-5"/>
    <linearGradient id="color-5" bx:pinned="true">
      <stop style="stop-color: #d38312;" offset="0"/>
      <stop style="stop-color: #a83279;" offset="1"/>
    </linearGradient>
    <linearGradient gradientUnits="userSpaceOnUse" x1="121.832" y1="188.126" x2="121.832" y2="234.876" id="gradient-1" gradientTransform="matrix(1, 0, 0, 1, 128.167999, 38.498993)">
      <stop offset="0" style="stop-color: rgb(0% 0% 0%)"/>
      <stop offset="1" style="stop-color: rgb(0% 0% 0%)"/>
    </linearGradient>
  </defs>
  <rect x="226.625" y="226.625" width="46.75" height="46.75" style="fill-rule: nonzero; stroke: url('#gradient-1'); paint-order: stroke; stroke-width: 0px; mix-blend-mode: darken; fill: url('#color-5-0');"/>
  <path d="M 256.087 237.887 C 254.034 237.891 251.932 238.946 250.517 241.2 C 248.726 238.599 245.82 237.589 243.292 238.106 C 240.552 238.666 238.268 241.074 238.384 244.887 C 238.493 248.461 240.551 250.972 242.979 253.373 C 245.407 255.773 248.229 258.115 250.127 261.403 L 250.534 262.11 L 250.942 261.404 C 252.832 258.129 255.745 255.896 258.224 253.546 C 260.703 251.195 262.764 248.652 262.65 244.859 C 262.543 241.277 260.306 238.78 257.628 238.083 C 257.126 237.953 256.608 237.886 256.087 237.887 Z M 256.084 238.82 C 256.525 238.823 256.963 238.882 257.39 238.993 C 259.666 239.585 261.614 241.679 261.711 244.887 C 261.814 248.332 260.002 250.563 257.577 252.863 C 255.312 255.012 252.528 257.158 250.536 260.264 C 248.559 257.15 245.87 254.907 243.642 252.704 C 241.257 250.346 239.424 248.088 239.325 244.859 C 239.22 241.42 241.143 239.505 243.481 239.027 C 245.819 238.55 248.583 239.567 250.124 242.343 L 250.552 243.117 L 250.955 242.328 C 252.218 239.85 254.174 238.806 256.084 238.82 Z M 255.459 239.873 C 255.375 239.871 255.295 239.874 255.218 239.88 C 254.913 239.905 254.678 239.985 254.525 240.09 C 254.371 240.193 254.29 240.31 254.248 240.492 C 254.165 240.857 254.355 241.469 254.862 242.105 C 255.368 242.741 256.154 243.382 257.074 243.839 C 257.993 244.297 258.867 244.477 259.478 244.428 C 259.783 244.403 260.017 244.323 260.17 244.218 C 260.324 244.114 260.408 243.998 260.449 243.815 C 260.532 243.451 260.339 242.84 259.833 242.205 C 259.328 241.569 258.543 240.929 257.623 240.47 C 256.819 240.07 256.048 239.88 255.46 239.873 L 255.459 239.873 Z M 244.886 239.874 C 244.819 239.873 244.757 239.875 244.697 239.88 C 244.458 239.9 244.281 239.96 244.171 240.034 C 244.062 240.108 244.01 240.182 243.981 240.308 C 243.924 240.561 244.061 241.034 244.464 241.536 C 244.867 242.037 245.499 242.55 246.238 242.914 C 246.976 243.279 247.675 243.42 248.153 243.382 C 248.391 243.362 248.568 243.299 248.678 243.225 C 248.787 243.151 248.839 243.077 248.868 242.952 C 248.926 242.7 248.788 242.226 248.385 241.725 C 247.983 241.223 247.35 240.712 246.612 240.348 C 245.966 240.028 245.349 239.88 244.886 239.874 Z M 250.642 246.42 C 247.899 246.42 245.415 246.644 243.646 246.999 C 242.762 247.176 242.054 247.389 241.607 247.601 C 241.384 247.707 241.227 247.816 241.15 247.891 C 241.114 247.927 241.099 247.948 241.092 247.958 C 241.099 247.969 241.114 247.992 241.15 248.028 C 241.227 248.102 241.383 248.209 241.607 248.316 C 242.054 248.528 242.761 248.741 243.646 248.918 C 245.415 249.273 247.899 249.499 250.642 249.499 C 253.384 249.499 255.868 249.273 257.638 248.918 C 258.521 248.741 259.229 248.528 259.676 248.316 C 259.9 248.209 260.056 248.102 260.133 248.028 C 260.169 247.992 260.184 247.969 260.191 247.958 C 260.184 247.948 260.169 247.927 260.133 247.891 C 260.056 247.816 259.9 247.707 259.676 247.601 C 259.229 247.389 258.521 247.176 257.638 246.999 C 255.868 246.644 253.384 246.42 250.642 246.42 Z M 260.191 247.958 C 260.198 247.97 260.196 247.969 260.196 247.958 C 260.196 247.948 260.198 247.947 260.191 247.958 Z M 241.092 247.958 C 241.085 247.947 241.088 247.948 241.088 247.958 C 241.088 247.969 241.085 247.97 241.092 247.958 Z M 259.449 249.418 C 258.986 249.578 258.443 249.717 257.821 249.842 C 255.962 250.214 253.435 250.44 250.642 250.44 C 247.848 250.44 245.319 250.214 243.46 249.842 C 242.882 249.726 242.37 249.597 241.928 249.452 C 244.133 252.34 247.942 254.799 250.522 258.764 C 251.981 256.553 253.882 254.87 255.646 253.307 C 257.117 252.005 258.482 250.779 259.449 249.418 Z" style="fill-rule: nonzero; stroke-width: 0px; filter: none; fill: rgb(255, 255, 255);"/>
</svg>