<?xml version="1.0" encoding="utf-8"?>
<svg viewBox="300.71 202.705 20 18.0022" xmlns="http://www.w3.org/2000/svg">
  <path d="M 300.71 203.705 L 300.71 219.707 C 300.71 220.092 300.93 220.442 301.277 220.609 C 301.623 220.775 302.035 220.728 302.335 220.488 L 307.06 216.707 L 319.71 216.707 C 320.262 216.707 320.71 216.259 320.71 215.707 L 320.71 203.705 C 320.71 203.153 320.262 202.705 319.71 202.705 L 301.71 202.705 C 301.158 202.705 300.71 203.153 300.71 203.705 Z M 319.21 215.207 L 306.533 215.207 L 302.21 218.667 L 302.21 204.205 C 304.771 204.063 320.412 204.138 319.21 204.205 L 319.21 215.207 Z" fill-rule="nonzero" transform="matrix(1, 0, 0, 1, 0, 7.105427357601002e-15)"/>
  <path d="M 311.277 205.374 L 310.577 205.374 L 310.577 210.514 C 309.395 210.295 308.128 211.142 308.128 212.065 C 308.128 212.841 308.786 213.243 309.5 213.243 C 310.346 213.243 311.275 212.677 311.277 211.525 L 311.277 207.341 C 312.328 208.07 313.243 208.405 313.046 209.637 C 313.545 209.07 313.724 208.713 313.724 208.308 C 313.724 206.851 311.277 206.369 311.277 205.374 Z" style="" transform="matrix(1, 0, 0, 1, 0, 7.105427357601002e-15)"/>
</svg>