<svg xmlns="http://www.w3.org/2000/svg" xmlns:xlink="http://www.w3.org/1999/xlink" xmlns:serif="http://www.serif.com/" viewBox="0 0 101 126.25" version="1.1" xml:space="preserve" style="" x="0px" y="0px" fill-rule="evenodd" clip-rule="evenodd" stroke-linejoin="round" stroke-miterlimit="2"><rect serif:id="Page 43" x="0.5" y="0.5" width="100" height="100" style="" fill="none"/><path d="M41.666,56.952c0.637,-1.102 0.259,-2.511 -0.843,-3.147c0,0 0,0 0,0c-1.651,-0.953 -2.216,-3.064 -1.263,-4.714c4.67,-8.089 17.5,-30.312 21.886,-37.909c0.396,-0.685 1.048,-1.186 1.813,-1.391c0.765,-0.205 1.58,-0.097 2.266,0.299c0,0 0,0 0,0c0.685,0.396 1.186,1.048 1.391,1.813c0.205,0.764 0.097,1.579 -0.299,2.265c0,0 -16.471,28.53 -19.156,33.179c-0.24,0.417 -0.363,0.892 -0.355,1.373c0,0.001 0,0.001 0,0.002c0.016,0.979 0.545,1.878 1.393,2.367c0.848,0.49 1.89,0.498 2.746,0.023c0.001,0 0.001,-0.001 0.002,-0.001c0.421,-0.234 0.77,-0.577 1.011,-0.994c2.684,-4.65 19.156,-33.18 19.156,-33.18c0.396,-0.685 1.048,-1.186 1.813,-1.391c0.765,-0.205 1.58,-0.097 2.265,0.299c0,0 0,0 0,0c0.686,0.396 1.187,1.048 1.392,1.813c0.204,0.764 0.097,1.579 -0.299,2.265c-4.386,7.597 -17.216,29.819 -21.886,37.908c-0.953,1.651 -3.064,2.216 -4.714,1.263c0,0 0,0 -0.001,0c-1.101,-0.636 -2.51,-0.258 -3.146,0.843c-3.408,5.903 -13.44,23.279 -17.252,29.881c-0.824,1.427 -2.649,1.916 -4.076,1.092c-0.001,0 -0.002,-0.001 -0.003,-0.001c-1.427,-0.824 -1.916,-2.65 -1.092,-4.077c3.811,-6.602 13.844,-23.978 17.251,-29.88Z"/></svg>